<svg width="17" height="17" viewBox="0 0 17 17" fill="none" xmlns="http://www.w3.org/2000/svg">
<g clip-path="url(#clip0_0_5349)">
<path d="M16.1488 0.146911L0.147357 16.1484C-0.166085 16.4618 0.0562715 17.0002 0.500187 17.0002H16.5016C16.7772 17.0002 17.0006 16.7768 17.0006 16.5012V0.499775C17.0007 0.056491 16.4627 -0.166964 16.1488 0.146911ZM16.0027 16.0022H1.70492L4.24276 13.4644L4.93785 14.1595C5.03528 14.2569 5.163 14.3056 5.29068 14.3056C5.73127 14.3056 5.95878 13.769 5.64351 13.4537L4.94843 12.7587L6.37182 11.3353L7.0669 12.0304C7.16434 12.1278 7.29206 12.1765 7.41973 12.1765C7.86032 12.1765 8.08784 11.6399 7.77256 11.3246L7.07752 10.6296L8.50091 9.2062L9.196 9.90128C9.29343 9.99872 9.42115 10.0474 9.54883 10.0474C9.98942 10.0474 10.2169 9.51083 9.90166 9.19556L9.20661 8.50051L10.63 7.07711L11.3251 7.77219C11.4225 7.86963 11.5502 7.91833 11.6779 7.91833C12.1185 7.91833 12.346 7.38173 12.0307 7.06646L11.3357 6.37141L12.7591 4.94802L13.4542 5.6431C13.5516 5.74054 13.6793 5.78924 13.807 5.78924C14.2476 5.78924 14.4751 5.25264 14.1598 4.93737L13.4648 4.24232L16.0026 1.70448V16.0022H16.0027Z" fill="#696969"/>
<path d="M12.9212 8.39685L8.39689 12.9212C8.08345 13.2346 8.30581 13.773 8.74972 13.773H13.274C13.5496 13.773 13.773 13.5496 13.773 13.274V8.74971C13.7731 8.30643 13.2351 8.08298 12.9212 8.39685ZM12.7751 12.775H9.95445L12.7751 9.95441V12.775Z" fill="#696969"/>
</g>
<defs>
<clipPath id="clip0_0_5349">
<rect width="17" height="17" fill="white"/>
</clipPath>
</defs>
</svg>
